<?xml version="1.0" encoding="utf-8"?>
<!-- Generator: Adobe Illustrator 27.0.0, SVG Export Plug-In . SVG Version: 6.00 Build 0)  -->
<svg version="1.1" id="Logo_copy_00000167368607717798974480000000567235842911720639_"
	 xmlns="http://www.w3.org/2000/svg" xmlns:xlink="http://www.w3.org/1999/xlink" x="0px" y="0px" viewBox="0 0 676.88 129.32"
	 style="enable-background:new 0 0 676.88 129.32;" xml:space="preserve">
<style type="text/css">
	.st0{fill:#2563EB;}
	.st1{fill:#0E1829;}
</style>
<g id="AInleuchtend">
	<g>
		<path class="st0" d="M146,90.17l16.9-42.7h8.78l16.77,42.7h-10.49l-8.05-21.66c-0.33-0.85-0.65-1.77-0.98-2.75
			c-0.33-0.98-0.65-1.98-0.98-3.02c-0.33-1.04-0.64-2.05-0.95-3.05c-0.31-1-0.56-1.92-0.76-2.78l1.83-0.06
			c-0.24,1.02-0.52,2.01-0.82,2.99c-0.3,0.98-0.61,1.94-0.91,2.9c-0.31,0.96-0.64,1.91-1.01,2.87c-0.37,0.96-0.71,1.94-1.04,2.96
			l-8.05,21.59H146z M154.06,82l3.23-7.81h19.64L180.1,82H154.06z"/>
		<path class="st0" d="M192.91,90.17v-8.72h7.2V56.2h-7.2v-8.72h24.83v8.72h-7.26v25.25h7.26v8.72H192.91z"/>
		<path class="st1" d="M227.62,90.17v-42.7h9.27l22.39,30.5l-2.01-0.3c-0.2-1.34-0.37-2.62-0.49-3.84c-0.12-1.22-0.23-2.42-0.34-3.6
			c-0.1-1.18-0.18-2.38-0.24-3.6c-0.06-1.22-0.1-2.54-0.12-3.97c-0.02-1.42-0.03-2.97-0.03-4.64V47.47h10.06v42.7h-9.39L233.36,58.7
			l3.11,0.43c0.2,1.95,0.38,3.61,0.52,4.97c0.14,1.36,0.26,2.57,0.37,3.63c0.1,1.06,0.17,2.01,0.21,2.87
			c0.04,0.85,0.07,1.7,0.09,2.53c0.02,0.83,0.03,1.76,0.03,2.78v14.27H227.62z"/>
		<path class="st1" d="M276.85,90.17v-42.7h10.37v33.55h19.03v9.15H276.85z"/>
		<path class="st1" d="M314,90.17v-42.7h29.77v8.85h-19.7v25.01h20.31v8.84H314z M318.88,72.67v-8.42h22.14v8.42H318.88z"/>
		<path class="st1" d="M371.34,90.54c-3.54,0-6.69-0.72-9.46-2.17c-2.77-1.44-4.93-3.42-6.5-5.95c-1.57-2.52-2.35-5.41-2.35-8.66
			V47.47h10.49v25.74c0,1.55,0.35,2.94,1.04,4.18c0.69,1.24,1.63,2.22,2.81,2.93c1.18,0.71,2.5,1.07,3.96,1.07
			c1.54,0,2.92-0.36,4.12-1.07c1.2-0.71,2.17-1.69,2.9-2.93c0.73-1.24,1.1-2.63,1.1-4.18V47.47h10.12v26.29
			c0,3.25-0.78,6.14-2.35,8.66c-1.57,2.52-3.73,4.5-6.5,5.95C377.97,89.82,374.84,90.54,371.34,90.54z"/>
		<path class="st1" d="M419.41,90.79c-3.21,0-6.17-0.54-8.88-1.62c-2.71-1.08-5.05-2.6-7.05-4.57c-1.99-1.97-3.53-4.31-4.61-7.02
			c-1.08-2.7-1.62-5.68-1.62-8.94c0-3.17,0.57-6.1,1.71-8.78c1.14-2.68,2.71-5.01,4.73-6.98c2.01-1.97,4.39-3.51,7.14-4.61
			c2.75-1.1,5.74-1.65,9-1.65c2.03,0,4.03,0.27,5.98,0.79c1.95,0.53,3.77,1.31,5.46,2.35c1.69,1.04,3.14,2.27,4.36,3.69l-6.34,7.26
			c-0.85-0.89-1.76-1.68-2.71-2.35c-0.96-0.67-2-1.19-3.14-1.56c-1.14-0.37-2.36-0.55-3.66-0.55c-1.63,0-3.16,0.3-4.61,0.88
			c-1.44,0.59-2.71,1.42-3.78,2.5c-1.08,1.08-1.92,2.39-2.53,3.93c-0.61,1.55-0.92,3.27-0.92,5.19c0,1.87,0.3,3.57,0.92,5.09
			c0.61,1.52,1.46,2.84,2.56,3.93c1.1,1.1,2.43,1.93,4,2.5c1.57,0.57,3.3,0.85,5.22,0.85c1.3,0,2.54-0.18,3.72-0.55
			c1.18-0.37,2.27-0.86,3.26-1.49c1-0.63,1.88-1.35,2.65-2.17l5,7.93c-1.02,1.14-2.37,2.16-4.06,3.05s-3.56,1.6-5.61,2.1
			S421.48,90.79,419.41,90.79z"/>
		<path class="st1" d="M442.34,90.17v-42.7h10.37v42.7H442.34z M446.37,73.52l0.06-9.27h27.88v9.27H446.37z M468.82,90.17v-42.7
			h10.37v42.7H468.82z"/>
		<path class="st1" d="M499.13,90.17V56.63h-12.69v-9.15h36.05v9.15H509.5v33.55H499.13z"/>
		<path class="st1" d="M529.82,90.17v-42.7h29.77v8.85h-19.7v25.01h20.31v8.84H529.82z M534.7,72.67v-8.42h22.14v8.42H534.7z"/>
		<path class="st1" d="M569.16,90.17v-42.7h9.27l22.39,30.5l-2.01-0.3c-0.2-1.34-0.37-2.62-0.49-3.84c-0.12-1.22-0.23-2.42-0.34-3.6
			c-0.1-1.18-0.18-2.38-0.24-3.6c-0.06-1.22-0.1-2.54-0.12-3.97c-0.02-1.42-0.03-2.97-0.03-4.64V47.47h10.07v42.7h-9.39L574.89,58.7
			l3.11,0.43c0.2,1.95,0.38,3.61,0.52,4.97c0.14,1.36,0.26,2.57,0.37,3.63c0.1,1.06,0.17,2.01,0.21,2.87
			c0.04,0.85,0.07,1.7,0.09,2.53c0.02,0.83,0.03,1.76,0.03,2.78v14.27H569.16z"/>
		<path class="st1" d="M618.39,90.17v-42.7h17.87c3.13,0,6,0.52,8.6,1.56s4.85,2.51,6.74,4.42c1.89,1.91,3.34,4.17,4.36,6.77
			c1.02,2.6,1.52,5.47,1.52,8.6s-0.51,6.01-1.52,8.63c-1.02,2.62-2.47,4.88-4.36,6.77c-1.89,1.89-4.14,3.35-6.74,4.39
			s-5.47,1.56-8.6,1.56H618.39z M628.76,83.1l-1.4-2.07h8.6c1.71,0,3.23-0.29,4.58-0.88c1.34-0.59,2.49-1.41,3.45-2.47
			s1.7-2.34,2.23-3.84c0.53-1.5,0.79-3.17,0.79-5s-0.26-3.5-0.79-5c-0.53-1.5-1.27-2.79-2.23-3.84c-0.96-1.06-2.1-1.88-3.45-2.47
			c-1.34-0.59-2.87-0.88-4.58-0.88h-8.78l1.59-1.95V83.1z"/>
	</g>
	<g>
		<g>
			<g>
				<g>
					<path class="st0" d="M61.16,88.87c-2.2,0-4.21-0.66-5.81-1.91c-1.77,0.45-6.24,1.13-10.02-2.1c-3.15-2.7-4.43-6.35-3.93-11.16
						c0.23-2.23,1.49-4.41,3.45-5.98c1.45-1.16,3.13-1.86,4.79-2.03c0-1.47,0.26-3.71,1.63-5.33c1.07-1.27,2.58-1.92,4.48-1.95
						c2.26-0.03,6.05,0.77,6.17,6.47c0.02,0.73-0.57,1.33-1.3,1.35c-0.72,0.02-1.34-0.56-1.35-1.3c-0.06-2.75-1.1-3.91-3.48-3.87
						c-1.12,0.02-1.93,0.34-2.49,1.01c-1.15,1.35-1.07,3.89-0.94,4.75c0.06,0.41-0.07,0.82-0.36,1.12c-0.29,0.3-0.69,0.44-1.1,0.4
						c-1.43-0.16-3.03,0.37-4.39,1.45c-1.41,1.13-2.31,2.66-2.48,4.19c-0.42,3.99,0.51,6.72,3.02,8.87c3.53,3.02,7.97,1.46,8.15,1.4
						c0.47-0.17,1-0.06,1.36,0.28c1.36,1.28,3.28,1.87,5.42,1.66c2.35-0.22,4.59-1.37,5.72-2.93c2.79-3.85,2.44-8.96,2.44-9.01
						c0-0.03,0-0.07,0-0.1V42.26c0-0.73,0.59-1.32,1.32-1.32s1.32,0.59,1.32,1.32V74.1c0.04,0.65,0.28,6.26-2.93,10.71
						c-1.58,2.18-4.49,3.72-7.61,4.02C61.88,88.85,61.52,88.87,61.16,88.87z"/>
				</g>
				<g>
					<path class="st0" d="M42.72,75.16c-0.09,0-0.19-0.01-0.29-0.03c-2.13-0.47-6.15-2.92-6.15-8.85c0-3.94,2.28-6.63,4.63-7.93
						c-0.9-0.99-1.88-2.42-2.24-4.23c-0.44-2.2,0.1-4.45,1.62-6.67c1.78-2.61,5.98-3.88,9.78-2.97c3.3,0.79,5.41,3.02,5.81,6.1
						c0.09,0.73-0.42,1.39-1.15,1.48c-0.72,0.09-1.39-0.42-1.48-1.15c-0.34-2.64-2.52-3.55-3.8-3.86c-2.7-0.65-5.82,0.2-6.98,1.88
						c-1.09,1.6-1.5,3.16-1.21,4.64c0.5,2.53,2.87,4.12,2.89,4.14c0.45,0.3,0.68,0.85,0.57,1.38c-0.11,0.53-0.54,0.94-1.07,1.03
						c-1.96,0.33-4.72,2.45-4.72,6.15c0,5.31,4.03,6.26,4.07,6.27c0.71,0.16,1.16,0.86,1.01,1.58
						C43.88,74.74,43.33,75.16,42.72,75.16z"/>
				</g>
				<g>
					<path class="st0" d="M62.81,53.24c-0.3,0-0.6-0.02-0.89-0.06c-2.6-0.33-4.5-2.14-4.95-4.73c-0.46-2.63,0.69-5.3,2.73-6.35
						c1.43-0.73,2.76-0.88,3.96-0.44c1.68,0.61,2.36,2.13,2.43,2.31c0.28,0.67-0.03,1.45-0.71,1.73c-0.67,0.28-1.44-0.03-1.73-0.69
						c-0.02-0.04-0.32-0.66-0.93-0.87c-0.48-0.17-1.09-0.06-1.83,0.32c-1,0.51-1.58,2.06-1.33,3.53c0.15,0.85,0.69,2.31,2.68,2.56
						c1.54,0.19,3.17-0.43,4.6-1.77c2.24-2.1,3.5-5.55,3.29-8.99c-0.23-3.65-2.83-5.09-3.94-5.54c-2.08-0.84-4.49-0.64-5.73,0.49
						c-1.77,1.6-1.29,3.67-1.29,3.69c0.14,0.56-0.11,1.15-0.61,1.45c-0.5,0.3-1.13,0.23-1.56-0.16c-0.1-0.09-2.7-2.34-5.79-0.68
						c-1.51,0.81-2.93,3.46-2.58,6.32c0.09,0.73-0.43,1.38-1.15,1.47c-0.72,0.09-1.38-0.43-1.47-1.15
						c-0.44-3.66,1.26-7.52,3.96-8.97c2.65-1.43,5.03-0.98,6.65-0.29c0.22-1.14,0.79-2.47,2.08-3.64c2.02-1.83,5.44-2.23,8.5-0.98
						c3.32,1.35,5.36,4.21,5.58,7.83c0.26,4.27-1.28,8.42-4.12,11.09C66.9,52.36,64.85,53.24,62.81,53.24z"/>
				</g>
				<g>
					<path class="st0" d="M70.62,81.65c-0.11,0-0.23-0.02-0.35-0.05c-0.7-0.19-1.12-0.92-0.93-1.62l0,0
						c0.33-1.21,0.95-4.73-0.07-6.46c-0.27-0.46-0.63-0.73-1.13-0.86c-1.3-0.32-2.27-0.16-2.9,0.5c-0.8,0.84-0.89,2.25-0.72,2.81
						c0.21,0.69-0.17,1.41-0.85,1.64c-0.68,0.23-1.42-0.13-1.66-0.8c-0.11-0.3-1.19-2.94-3.84-2.52c-1.8,0.29-2.21,1.83-2.29,2.29
						c-0.17,0.97,0.13,1.88,0.74,2.22c0.64,0.36,0.86,1.16,0.51,1.8c-0.36,0.64-1.16,0.86-1.8,0.51c-1.6-0.9-2.42-2.9-2.05-4.99
						c0.42-2.36,2.14-4.07,4.48-4.44c1.92-0.31,3.44,0.3,4.56,1.21c0.24-0.56,0.58-1.09,1.01-1.54c0.92-0.96,2.61-1.96,5.46-1.25
						c1.19,0.3,2.15,1.02,2.77,2.09c1.75,2.99,0.49,7.93,0.34,8.49C71.74,81.26,71.2,81.65,70.62,81.65z"/>
				</g>
				<g>
					<path class="st0" d="M71.49,69.44C71.48,69.44,71.48,69.44,71.49,69.44c-0.74,0-1.33-0.6-1.32-1.33
						c0.02-3.62,0.03-7.04-0.91-7.98c-0.14-0.14-0.36-0.29-0.91-0.29c-1.69,0-1.82,1.33-1.82,1.74c0,0.73-0.59,1.32-1.32,1.32
						c0,0,0,0,0,0c-0.73,0-1.32-0.59-1.32-1.32c0-1.76,1.19-4.39,4.47-4.39c1.14,0,2.08,0.36,2.79,1.07
						c1.71,1.72,1.7,5.13,1.68,9.86C72.81,68.85,72.21,69.44,71.49,69.44z"/>
				</g>
			</g>
			<g>
				<g>
					<path class="st0" d="M85.25,88.87c-0.35,0-0.71-0.02-1.08-0.05c-3.12-0.3-6.03-1.84-7.61-4.02
						c-3.22-4.45-2.98-10.05-2.93-10.71V42.26c0-0.73,0.59-1.32,1.32-1.32s1.32,0.59,1.32,1.32v31.88c0,0.03,0,0.07,0,0.1
						c0,0.05-0.33,5.18,2.44,9.01c1.13,1.56,3.37,2.71,5.72,2.93c2.13,0.2,4.06-0.39,5.42-1.66c0.37-0.34,0.89-0.45,1.37-0.28
						c0.18,0.07,4.62,1.62,8.15-1.4c2.51-2.15,3.44-4.88,3.02-8.87c-0.16-1.53-1.06-3.06-2.48-4.19c-1.36-1.09-2.96-1.62-4.39-1.45
						c-0.41,0.05-0.82-0.1-1.1-0.4c-0.29-0.3-0.42-0.71-0.35-1.12c0.13-0.86,0.21-3.4-0.94-4.75c-0.56-0.66-1.38-0.99-2.49-1.01
						c-0.03,0-0.07,0-0.1,0c-2.32,0-3.33,1.16-3.39,3.87c-0.01,0.73-0.61,1.31-1.35,1.3c-0.73-0.02-1.31-0.62-1.3-1.35
						c0.12-5.7,3.9-6.5,6.17-6.47c1.9,0.03,3.41,0.68,4.48,1.95c1.37,1.62,1.63,3.86,1.63,5.33c1.66,0.16,3.34,0.87,4.79,2.03
						c1.96,1.57,3.22,3.75,3.45,5.98c0.51,4.81-0.78,8.46-3.93,11.16c-3.77,3.23-8.24,2.55-10.02,2.1
						C89.46,88.21,87.45,88.87,85.25,88.87z"/>
				</g>
				<g>
					<path class="st0" d="M103.69,75.16c-0.61,0-1.16-0.42-1.29-1.04c-0.16-0.71,0.29-1.41,1-1.57c0.19-0.05,4.08-1.05,4.08-6.27
						c0-3.7-2.76-5.83-4.72-6.15c-0.54-0.09-0.97-0.5-1.08-1.03c-0.11-0.53,0.12-1.08,0.57-1.38c0.02-0.01,2.39-1.61,2.89-4.13
						c0.29-1.47-0.12-3.04-1.21-4.64c-1.15-1.69-4.28-2.53-6.98-1.88c-1.27,0.31-3.46,1.22-3.8,3.86c-0.09,0.72-0.75,1.24-1.48,1.15
						c-0.72-0.09-1.24-0.75-1.15-1.48c0.39-3.08,2.51-5.31,5.8-6.1c3.8-0.91,8,0.36,9.78,2.97c1.51,2.22,2.06,4.46,1.62,6.67
						c-0.36,1.81-1.34,3.24-2.24,4.23c2.35,1.3,4.63,3.99,4.63,7.93c0,5.93-4.02,8.39-6.15,8.85
						C103.88,75.15,103.79,75.16,103.69,75.16z"/>
				</g>
				<g>
					<path class="st0" d="M83.6,53.24c-2.05,0-4.09-0.88-5.85-2.52c-2.85-2.67-4.39-6.81-4.12-11.09c0.22-3.62,2.26-6.48,5.58-7.83
						c3.06-1.25,6.48-0.85,8.5,0.98c1.29,1.17,1.86,2.51,2.08,3.64c1.62-0.7,4-1.14,6.65,0.29c2.7,1.45,4.4,5.31,3.96,8.97
						c-0.09,0.73-0.75,1.24-1.47,1.15c-0.73-0.09-1.24-0.75-1.15-1.47c0.35-2.86-1.07-5.51-2.58-6.32
						c-3.12-1.68-5.76,0.66-5.79,0.68c-0.43,0.39-1.06,0.45-1.56,0.16c-0.5-0.3-0.75-0.88-0.61-1.45c0.02-0.07,0.44-2.12-1.29-3.69
						c-1.24-1.13-3.65-1.33-5.73-0.49c-1.11,0.45-3.72,1.9-3.94,5.54c-0.21,3.44,1.05,6.89,3.29,8.99c1.43,1.34,3.06,1.97,4.6,1.77
						c1.98-0.25,2.53-1.71,2.68-2.56c0.26-1.47-0.33-3.02-1.33-3.53c-0.74-0.38-1.35-0.48-1.83-0.32c-0.62,0.22-0.92,0.86-0.93,0.87
						c-0.28,0.67-1.06,0.98-1.73,0.7c-0.67-0.28-0.99-1.07-0.7-1.74c0.07-0.17,0.75-1.69,2.43-2.31c1.2-0.44,2.53-0.29,3.96,0.44
						c2.04,1.04,3.19,3.71,2.73,6.35c-0.45,2.59-2.35,4.4-4.95,4.73C84.2,53.22,83.9,53.24,83.6,53.24z"/>
				</g>
				<g>
					<path class="st0" d="M75.79,81.65c-0.58,0-1.12-0.39-1.28-0.98c-0.15-0.55-1.42-5.49,0.34-8.49c0.63-1.07,1.59-1.79,2.77-2.09
						c2.85-0.71,4.55,0.28,5.46,1.25c0.43,0.46,0.77,0.99,1.01,1.54c1.12-0.9,2.63-1.51,4.56-1.21c2.34,0.37,4.06,2.08,4.48,4.44
						c0.37,2.09-0.45,4.1-2.05,4.99c-0.64,0.36-1.44,0.13-1.8-0.51c-0.36-0.64-0.13-1.44,0.51-1.8c0.61-0.34,0.91-1.26,0.74-2.22
						c-0.08-0.46-0.49-2-2.29-2.29c-2.64-0.42-3.72,2.22-3.84,2.53c-0.25,0.67-0.99,1.02-1.67,0.79c-0.68-0.23-1.05-0.95-0.84-1.63
						c0.17-0.56,0.07-1.97-0.72-2.81c-0.63-0.66-1.6-0.83-2.9-0.5c-0.5,0.13-0.86,0.4-1.13,0.86c-1.01,1.73-0.37,5.33-0.06,6.45
						c0.19,0.71-0.22,1.43-0.93,1.62C76.02,81.64,75.91,81.65,75.79,81.65z"/>
				</g>
				<g>
					<path class="st0" d="M74.93,69.44c-0.73,0-1.32-0.59-1.32-1.32c-0.02-4.73-0.04-8.14,1.68-9.86c0.71-0.71,1.65-1.07,2.79-1.07
						c3.28,0,4.47,2.62,4.47,4.39c0,0.73-0.59,1.32-1.32,1.32c-0.73,0-1.32-0.59-1.32-1.31c-0.01-0.53-0.22-1.75-1.82-1.75
						c-0.55,0-0.78,0.16-0.91,0.29c-0.94,0.94-0.92,4.36-0.9,7.98C76.25,68.84,75.66,69.43,74.93,69.44
						C74.93,69.44,74.93,69.44,74.93,69.44z"/>
				</g>
			</g>
			<g>
				<path class="st0" d="M62.84,97.79c-0.52,0-1.02-0.31-1.23-0.82c-0.03-0.06-1.88-4.45-6.25-6.34c-0.67-0.29-0.98-1.07-0.69-1.74
					c0.29-0.67,1.07-0.98,1.74-0.69c5.39,2.33,7.56,7.55,7.65,7.77c0.28,0.68-0.05,1.45-0.73,1.72C63.17,97.76,63,97.79,62.84,97.79
					z"/>
			</g>
			<g>
				<path class="st0" d="M83.86,97.79c0.52,0,1.02-0.31,1.23-0.82c0.03-0.06,1.88-4.45,6.25-6.34c0.67-0.29,0.98-1.07,0.69-1.74
					c-0.29-0.67-1.07-0.98-1.74-0.69c-5.39,2.33-7.56,7.55-7.65,7.77c-0.28,0.68,0.05,1.45,0.73,1.72
					C83.53,97.76,83.69,97.79,83.86,97.79z"/>
			</g>
			<g>
				<path class="st0" d="M74.65,99.44C74.65,99.44,74.64,99.44,74.65,99.44c-0.46,0-0.83-0.37-0.83-0.83c0-0.17,0.03-4.13,2.21-7.22
					c0.26-0.37,0.78-0.46,1.15-0.2c0.37,0.26,0.46,0.78,0.2,1.15c-1.88,2.65-1.91,6.23-1.91,6.27
					C75.47,99.07,75.1,99.44,74.65,99.44z"/>
			</g>
			<g>
				<path class="st0" d="M77.14,92.7c-1.39,0-2.51-1.13-2.51-2.51c0-1.39,1.13-2.51,2.51-2.51c1.39,0,2.51,1.13,2.51,2.51
					C79.65,91.57,78.53,92.7,77.14,92.7z M77.14,89.33c-0.47,0-0.86,0.39-0.86,0.86c0,0.47,0.39,0.86,0.86,0.86
					c0.47,0,0.86-0.39,0.86-0.86C78,89.71,77.61,89.33,77.14,89.33z"/>
			</g>
			<g>
				<path class="st0" d="M71.77,99.44c-0.46,0-0.83-0.37-0.83-0.83l0,0c0-0.04-0.03-3.61-1.91-6.27c-0.26-0.37-0.17-0.89,0.2-1.15
					c0.37-0.26,0.89-0.17,1.15,0.2c2.18,3.09,2.21,7.05,2.21,7.22C72.59,99.07,72.22,99.44,71.77,99.44z"/>
			</g>
			<g>
				<path class="st0" d="M69.27,92.7c-1.39,0-2.51-1.13-2.51-2.51c0-1.39,1.13-2.51,2.51-2.51c1.39,0,2.51,1.13,2.51,2.51
					C71.79,91.57,70.66,92.7,69.27,92.7z M69.27,89.33c-0.47,0-0.86,0.39-0.86,0.86c0,0.47,0.39,0.86,0.86,0.86
					c0.47,0,0.86-0.39,0.86-0.86C70.13,89.71,69.75,89.33,69.27,89.33z"/>
			</g>
		</g>
	</g>
</g>
<g id="Vector_Smart_Object_xA0_Image_00000149352669724380513210000010085028755152509085_">
</g>
<g id="Rectangle_2_00000033366256674171144500000000815664594106994331_">
	<g>
		<path d="M87.68,102.12h-29c-1.52,0-2.75,1.23-2.75,2.75s1.23,2.75,2.75,2.75h29c1.52,0,2.75-1.23,2.75-2.75
			S89.19,102.12,87.68,102.12z"/>
	</g>
</g>
<g id="Rectangle_2_copy_00000008135985644891234170000016359694257366840721_">
	<g>
		<path d="M81.96,109.03H64.39c-1.52,0-2.75,1.23-2.75,2.75s1.23,2.75,2.75,2.75h17.57c1.52,0,2.75-1.23,2.75-2.75
			S83.48,109.03,81.96,109.03z"/>
	</g>
</g>
<g id="Rectangle_2_copy_2_00000022544781695675238330000014984095200557678986_">
	<g>
		<path d="M76.98,116.16h-7.62c-1.52,0-2.75,1.23-2.75,2.75s1.23,2.75,2.75,2.75h7.62c1.52,0,2.75-1.23,2.75-2.75
			S78.5,116.16,76.98,116.16z"/>
	</g>
</g>
<g id="Rectangle_3_00000138568351776745736990000017073487479183529146_">
	<g>
		<path class="st1" d="M73.17,7.49c-0.99,0-1.8,0.81-1.8,1.8v12.07c0,0.99,0.81,1.8,1.8,1.8c0.99,0,1.8-0.81,1.8-1.8V9.29
			C74.97,8.3,74.17,7.49,73.17,7.49z"/>
	</g>
</g>
<g id="Rectangle_3_copy_00000084529805138951416270000018303502498543389344_">
	<g>
		<path class="st1" d="M52.13,26.64L46.1,16.19c-0.5-0.86-1.6-1.16-2.46-0.66c-0.86,0.5-1.16,1.6-0.66,2.46l6.03,10.45
			c0.5,0.86,1.6,1.16,2.46,0.66C52.34,28.6,52.63,27.5,52.13,26.64z"/>
	</g>
</g>
<g id="Rectangle_3_copy_2_00000161617068821451012810000009711030104794335393_">
	<g>
		<path class="st1" d="M31.37,42.83L20.92,36.8c-0.86-0.5-1.96-0.2-2.46,0.66c-0.5,0.86-0.2,1.96,0.66,2.46l10.45,6.03
			c0.86,0.5,1.96,0.2,2.46-0.66C32.53,44.43,32.23,43.33,31.37,42.83z"/>
	</g>
</g>
<g id="Rectangle_3_copy_3_00000097476636438781476210000000989236356686186163_">
	<g>
		<path class="st1" d="M29.22,63.27c-0.26-0.96-1.24-1.53-2.2-1.27l-11.66,3.12c-0.96,0.26-1.53,1.24-1.27,2.2
			c0.26,0.96,1.24,1.53,2.2,1.27l11.66-3.12C28.9,65.21,29.47,64.23,29.22,63.27z"/>
	</g>
</g>
<g id="Rectangle_3_copy_5_00000008832092464109363440000018171028711135040939_">
	<g>
		<path class="st1" d="M102.71,15.53c-0.86-0.5-1.96-0.2-2.46,0.66l-6.03,10.45c-0.5,0.86-0.2,1.96,0.66,2.46
			c0.86,0.5,1.96,0.2,2.46-0.66l6.03-10.45C103.86,17.13,103.57,16.02,102.71,15.53z"/>
	</g>
</g>
<g id="Rectangle_3_copy_6_00000101065513265251606100000007981816511419321243_">
	<g>
		<path class="st1" d="M125,37.46c-0.5-0.86-1.6-1.16-2.46-0.66l-10.45,6.03c-0.86,0.5-1.16,1.6-0.66,2.46
			c0.5,0.86,1.6,1.16,2.46,0.66l10.45-6.03C125.2,39.42,125.5,38.32,125,37.46z"/>
	</g>
</g>
<g id="Rectangle_3_copy_7_00000060731610644464591170000005655915369214505607_">
	<g>
		<path class="st1" d="M128.11,65.12l-11.66-3.12c-0.96-0.26-1.95,0.31-2.2,1.27s0.31,1.95,1.27,2.2l11.66,3.12
			c0.96,0.26,1.95-0.31,2.2-1.27C129.64,66.36,129.07,65.37,128.11,65.12z"/>
	</g>
</g>
</svg>
