<?xml version="1.0" encoding="utf-8"?>
<!-- Generator: Adobe Illustrator 27.0.0, SVG Export Plug-In . SVG Version: 6.00 Build 0)  -->
<svg version="1.1" id="Logo_copy_00000167368607717798974480000000567235842911720639_"
	 xmlns="http://www.w3.org/2000/svg" xmlns:xlink="http://www.w3.org/1999/xlink" x="0px" y="0px" viewBox="0 0 676.88 371.82"
	 style="enable-background:new 0 0 676.88 371.82;" xml:space="preserve">
<style type="text/css">
	.st0{fill:#2563EB;}
	.st1{fill:#0E1829;}
</style>
<g id="AInleuchtend">
	<g>
		<path class="st0" d="M85.02,300.68l16.9-42.7h8.78l16.77,42.7h-10.49l-8.05-21.66c-0.33-0.85-0.65-1.77-0.98-2.75
			c-0.33-0.98-0.65-1.98-0.98-3.02c-0.33-1.04-0.64-2.05-0.95-3.05c-0.31-1-0.56-1.92-0.76-2.78l1.83-0.06
			c-0.24,1.02-0.52,2.01-0.82,2.99c-0.3,0.98-0.61,1.94-0.91,2.9c-0.31,0.96-0.64,1.91-1.01,2.87c-0.37,0.96-0.71,1.94-1.04,2.96
			l-8.05,21.59H85.02z M93.07,292.51l3.23-7.81h19.64l3.17,7.81H93.07z"/>
		<path class="st0" d="M131.93,300.68v-8.72h7.2v-25.25h-7.2v-8.72h24.83v8.72h-7.26v25.25h7.26v8.72H131.93z"/>
		<path class="st1" d="M166.64,300.68v-42.7h9.27l22.39,30.5l-2.01-0.3c-0.2-1.34-0.37-2.62-0.49-3.84
			c-0.12-1.22-0.23-2.42-0.34-3.6c-0.1-1.18-0.18-2.38-0.24-3.6c-0.06-1.22-0.1-2.54-0.12-3.97c-0.02-1.42-0.03-2.97-0.03-4.64
			v-10.55h10.06v42.7h-9.39l-23.36-31.48l3.11,0.43c0.2,1.95,0.38,3.61,0.52,4.97c0.14,1.36,0.26,2.57,0.37,3.63
			c0.1,1.06,0.17,2.01,0.21,2.87c0.04,0.85,0.07,1.7,0.09,2.53c0.02,0.83,0.03,1.76,0.03,2.78v14.27H166.64z"/>
		<path class="st1" d="M215.87,300.68v-42.7h10.37v33.55h19.03v9.15H215.87z"/>
		<path class="st1" d="M253.01,300.68v-42.7h29.77v8.85h-19.7v25.01h20.31v8.84H253.01z M257.89,283.18v-8.42h22.14v8.42H257.89z"/>
		<path class="st1" d="M310.35,301.05c-3.54,0-6.69-0.72-9.46-2.17c-2.77-1.44-4.93-3.42-6.5-5.95c-1.57-2.52-2.35-5.41-2.35-8.66
			v-26.29h10.49v25.74c0,1.55,0.35,2.94,1.04,4.18c0.69,1.24,1.63,2.22,2.81,2.93c1.18,0.71,2.5,1.07,3.96,1.07
			c1.54,0,2.92-0.36,4.12-1.07c1.2-0.71,2.17-1.69,2.9-2.93c0.73-1.24,1.1-2.63,1.1-4.18v-25.74h10.12v26.29
			c0,3.25-0.78,6.14-2.35,8.66c-1.57,2.52-3.73,4.5-6.5,5.95C316.98,300.33,313.85,301.05,310.35,301.05z"/>
		<path class="st1" d="M358.42,301.29c-3.21,0-6.17-0.54-8.88-1.62c-2.71-1.08-5.05-2.6-7.05-4.57c-1.99-1.97-3.53-4.31-4.61-7.02
			c-1.08-2.7-1.62-5.68-1.62-8.94c0-3.17,0.57-6.1,1.71-8.78c1.14-2.68,2.71-5.01,4.73-6.98c2.01-1.97,4.39-3.51,7.14-4.61
			c2.75-1.1,5.74-1.65,9-1.65c2.03,0,4.03,0.27,5.98,0.79c1.95,0.53,3.77,1.31,5.46,2.35c1.69,1.04,3.14,2.27,4.36,3.69l-6.34,7.26
			c-0.85-0.89-1.76-1.68-2.71-2.35c-0.96-0.67-2-1.19-3.14-1.56c-1.14-0.37-2.36-0.55-3.66-0.55c-1.63,0-3.16,0.3-4.61,0.88
			c-1.44,0.59-2.71,1.42-3.78,2.5c-1.08,1.08-1.92,2.39-2.53,3.93c-0.61,1.55-0.92,3.27-0.92,5.19c0,1.87,0.3,3.57,0.92,5.09
			c0.61,1.52,1.46,2.84,2.56,3.93c1.1,1.1,2.43,1.93,4,2.5c1.57,0.57,3.3,0.85,5.22,0.85c1.3,0,2.54-0.18,3.72-0.55
			c1.18-0.37,2.27-0.86,3.26-1.49c1-0.63,1.88-1.35,2.65-2.17l5,7.93c-1.02,1.14-2.37,2.16-4.06,3.05s-3.56,1.6-5.61,2.1
			S360.5,301.29,358.42,301.29z"/>
		<path class="st1" d="M381.36,300.68v-42.7h10.37v42.7H381.36z M385.38,284.03l0.06-9.27h27.88v9.27H385.38z M407.83,300.68v-42.7
			h10.37v42.7H407.83z"/>
		<path class="st1" d="M438.15,300.68v-33.55h-12.69v-9.15h36.05v9.15h-12.99v33.55H438.15z"/>
		<path class="st1" d="M468.83,300.68v-42.7h29.77v8.85h-19.7v25.01h20.31v8.84H468.83z M473.71,283.18v-8.42h22.14v8.42H473.71z"/>
		<path class="st1" d="M508.18,300.68v-42.7h9.27l22.39,30.5l-2.01-0.3c-0.2-1.34-0.37-2.62-0.49-3.84
			c-0.12-1.22-0.23-2.42-0.34-3.6c-0.1-1.18-0.18-2.38-0.24-3.6c-0.06-1.22-0.1-2.54-0.12-3.97c-0.02-1.42-0.03-2.97-0.03-4.64
			v-10.55h10.07v42.7h-9.39l-23.36-31.48l3.11,0.43c0.2,1.95,0.38,3.61,0.52,4.97c0.14,1.36,0.26,2.57,0.37,3.63
			c0.1,1.06,0.17,2.01,0.21,2.87c0.04,0.85,0.07,1.7,0.09,2.53c0.02,0.83,0.03,1.76,0.03,2.78v14.27H508.18z"/>
		<path class="st1" d="M557.4,300.68v-42.7h17.87c3.13,0,6,0.52,8.6,1.56s4.85,2.51,6.74,4.42c1.89,1.91,3.34,4.17,4.36,6.77
			c1.02,2.6,1.52,5.47,1.52,8.6s-0.51,6.01-1.52,8.63c-1.02,2.62-2.47,4.88-4.36,6.77c-1.89,1.89-4.14,3.35-6.74,4.39
			s-5.47,1.56-8.6,1.56H557.4z M567.77,293.61l-1.4-2.07h8.6c1.71,0,3.23-0.29,4.58-0.88c1.34-0.59,2.49-1.41,3.45-2.47
			s1.7-2.34,2.23-3.84c0.53-1.5,0.79-3.17,0.79-5s-0.26-3.5-0.79-5c-0.53-1.5-1.27-2.79-2.23-3.84c-0.96-1.06-2.1-1.88-3.45-2.47
			c-1.34-0.59-2.87-0.88-4.58-0.88h-8.78l1.59-1.95V293.61z"/>
	</g>
	<g>
		<g>
			<g>
				<g>
					<path class="st0" d="M322.77,177.89c-3.4,0-6.51-1.02-8.98-2.96c-2.74,0.7-9.64,1.75-15.47-3.25
						c-4.86-4.17-6.85-9.81-6.07-17.23c0.36-3.44,2.31-6.81,5.33-9.23c2.23-1.79,4.83-2.88,7.39-3.13c0-2.28,0.41-5.74,2.52-8.23
						c1.66-1.96,3.99-2.97,6.92-3.01c3.49-0.05,9.34,1.19,9.52,9.99c0.02,1.13-0.87,2.06-2,2.08c-1.11,0.02-2.06-0.87-2.08-2
						c-0.09-4.24-1.71-6.04-5.38-5.98c-1.72,0.02-2.98,0.53-3.85,1.56c-1.78,2.09-1.66,6.01-1.46,7.34
						c0.09,0.63-0.11,1.27-0.55,1.72c-0.44,0.46-1.07,0.68-1.7,0.61c-2.21-0.25-4.68,0.56-6.77,2.24c-2.18,1.75-3.57,4.11-3.82,6.47
						c-0.65,6.16,0.79,10.38,4.66,13.7c5.45,4.67,12.3,2.26,12.59,2.16c0.72-0.26,1.54-0.1,2.1,0.43c2.1,1.97,5.07,2.88,8.37,2.57
						c3.62-0.35,7.09-2.12,8.83-4.53c4.31-5.95,3.77-13.84,3.76-13.92c0-0.05-0.01-0.1-0.01-0.15v-49.24c0-1.13,0.91-2.04,2.04-2.04
						c1.13,0,2.04,0.91,2.04,2.04v49.17c0.06,1.01,0.44,9.66-4.53,16.53c-2.43,3.37-6.94,5.74-11.75,6.2
						C323.87,177.87,323.32,177.89,322.77,177.89z"/>
				</g>
				<g>
					<path class="st0" d="M294.29,156.72c-0.15,0-0.29-0.02-0.44-0.05c-3.28-0.72-9.5-4.51-9.5-13.67c0-6.08,3.52-10.23,7.15-12.25
						c-1.39-1.53-2.9-3.74-3.46-6.54c-0.68-3.41,0.16-6.87,2.5-10.3c2.75-4.02,9.24-5.99,15.11-4.58c5.09,1.23,8.36,4.66,8.97,9.42
						c0.14,1.12-0.65,2.14-1.77,2.28c-1.12,0.14-2.14-0.65-2.28-1.77c-0.52-4.08-3.9-5.49-5.87-5.96c-4.16-1-8.99,0.3-10.77,2.91
						c-1.69,2.48-2.32,4.89-1.87,7.16c0.76,3.9,4.43,6.36,4.46,6.39c0.7,0.46,1.05,1.31,0.87,2.13c-0.18,0.82-0.83,1.45-1.66,1.59
						c-3.03,0.5-7.29,3.79-7.29,9.5c0,8.2,6.22,9.67,6.29,9.68c1.1,0.24,1.8,1.33,1.56,2.43
						C296.07,156.07,295.23,156.72,294.29,156.72z"/>
				</g>
				<g>
					<path class="st0" d="M325.31,122.86c-0.46,0-0.92-0.03-1.38-0.09c-4.02-0.51-6.95-3.31-7.65-7.3c-0.71-4.07,1.06-8.19,4.21-9.8
						c2.21-1.13,4.26-1.36,6.12-0.68c2.59,0.95,3.65,3.3,3.76,3.56c0.44,1.04-0.05,2.24-1.09,2.68c-1.03,0.44-2.22-0.04-2.67-1.07
						c-0.03-0.06-0.49-1.02-1.43-1.34c-0.74-0.26-1.69-0.09-2.83,0.49c-1.55,0.79-2.45,3.19-2.05,5.46
						c0.23,1.31,1.07,3.57,4.14,3.95c2.38,0.3,4.9-0.67,7.1-2.74c3.46-3.25,5.41-8.57,5.08-13.89c-0.35-5.63-4.37-7.86-6.09-8.56
						c-3.21-1.3-6.93-0.99-8.85,0.75c-2.73,2.47-2,5.67-1.99,5.7c0.21,0.87-0.17,1.78-0.94,2.24c-0.77,0.46-1.75,0.36-2.42-0.24
						c-0.16-0.14-4.18-3.62-8.94-1.06c-2.34,1.26-4.53,5.35-3.99,9.77c0.14,1.12-0.66,2.14-1.78,2.27
						c-1.12,0.14-2.14-0.66-2.27-1.78c-0.69-5.65,1.94-11.61,6.11-13.86c4.09-2.2,7.77-1.52,10.27-0.44
						c0.34-1.76,1.21-3.82,3.21-5.63c3.12-2.83,8.4-3.44,13.13-1.51c5.14,2.09,8.28,6.5,8.62,12.09c0.41,6.6-1.97,13-6.37,17.12
						C331.63,121.5,328.47,122.86,325.31,122.86z"/>
				</g>
				<g>
					<path class="st0" d="M337.38,166.74c-0.18,0-0.36-0.02-0.54-0.07c-1.09-0.3-1.73-1.42-1.44-2.51l0,0
						c0.5-1.87,1.47-7.3-0.1-9.97c-0.42-0.71-0.97-1.13-1.75-1.32c-2-0.5-3.51-0.24-4.48,0.78c-1.23,1.29-1.38,3.48-1.12,4.34
						c0.32,1.06-0.26,2.18-1.31,2.53c-1.05,0.35-2.19-0.2-2.57-1.24c-0.17-0.46-1.84-4.54-5.92-3.89c-2.78,0.44-3.41,2.82-3.54,3.54
						c-0.27,1.49,0.2,2.91,1.14,3.43c0.98,0.55,1.33,1.8,0.78,2.78c-0.55,0.98-1.8,1.33-2.78,0.78c-2.47-1.39-3.74-4.49-3.16-7.71
						c0.65-3.65,3.3-6.28,6.92-6.86c2.97-0.48,5.32,0.47,7.04,1.86c0.37-0.86,0.89-1.68,1.56-2.38c1.41-1.49,4.03-3.03,8.43-1.93
						c1.83,0.46,3.31,1.57,4.28,3.22c2.71,4.62,0.75,12.25,0.52,13.11C339.1,166.14,338.28,166.74,337.38,166.74z"/>
				</g>
				<g>
					<path class="st0" d="M338.71,147.88C338.71,147.88,338.71,147.88,338.71,147.88c-1.14-0.01-2.05-0.92-2.04-2.05
						c0.02-5.59,0.05-10.88-1.4-12.33c-0.21-0.21-0.56-0.45-1.41-0.45c-2.61,0-2.81,2.06-2.81,2.69c0,1.13-0.91,2.04-2.04,2.04
						c0,0,0,0,0,0c-1.13,0-2.04-0.92-2.04-2.04c0-2.72,1.84-6.78,6.9-6.78c1.76,0,3.21,0.56,4.31,1.66
						c2.64,2.66,2.62,7.93,2.59,15.23C340.75,146.97,339.84,147.88,338.71,147.88z"/>
				</g>
			</g>
			<g>
				<g>
					<path class="st0" d="M359.97,177.89c-0.55,0-1.1-0.03-1.66-0.08c-4.81-0.46-9.32-2.84-11.75-6.2
						c-4.97-6.87-4.6-15.52-4.53-16.53v-49.17c0-1.13,0.91-2.04,2.04-2.04c1.13,0,2.04,0.91,2.04,2.04v49.24c0,0.05,0,0.1-0.01,0.15
						c-0.01,0.08-0.52,8,3.76,13.92c1.74,2.41,5.2,4.18,8.83,4.53c3.29,0.31,6.27-0.6,8.37-2.57c0.56-0.53,1.38-0.7,2.11-0.43
						c0.28,0.1,7.14,2.51,12.59-2.16c3.87-3.32,5.31-7.54,4.66-13.7c-0.25-2.37-1.64-4.72-3.82-6.47c-2.09-1.68-4.57-2.5-6.77-2.24
						c-0.63,0.07-1.26-0.15-1.71-0.61c-0.44-0.46-0.64-1.1-0.55-1.73c0.2-1.33,0.32-5.24-1.46-7.34c-0.87-1.02-2.13-1.53-3.85-1.56
						c-0.05,0-0.1,0-0.15,0c-3.58,0-5.14,1.8-5.23,5.98c-0.02,1.13-0.94,2.02-2.08,2c-1.13-0.02-2.02-0.96-2-2.08
						c0.18-8.8,6.02-10.04,9.52-9.99c2.94,0.04,5.27,1.05,6.92,3.01c2.11,2.5,2.52,5.96,2.52,8.23c2.56,0.25,5.16,1.34,7.39,3.13
						c3.03,2.43,4.97,5.79,5.33,9.23c0.78,7.43-1.2,13.06-6.07,17.23c-5.83,4.99-12.73,3.94-15.47,3.25
						C366.48,176.87,363.36,177.89,359.97,177.89z"/>
				</g>
				<g>
					<path class="st0" d="M388.45,156.72c-0.94,0-1.78-0.65-1.99-1.6c-0.24-1.1,0.45-2.18,1.54-2.43c0.3-0.07,6.3-1.62,6.3-9.68
						c0-5.72-4.26-9-7.29-9.5c-0.83-0.14-1.49-0.77-1.66-1.6c-0.17-0.82,0.18-1.67,0.89-2.13c0.03-0.02,3.69-2.48,4.46-6.38
						c0.45-2.28-0.18-4.69-1.87-7.16c-1.78-2.61-6.61-3.91-10.77-2.91c-1.97,0.47-5.35,1.88-5.87,5.96
						c-0.14,1.12-1.17,1.91-2.28,1.77c-1.12-0.14-1.91-1.16-1.77-2.28c0.6-4.76,3.87-8.19,8.96-9.42
						c5.87-1.41,12.36,0.56,15.11,4.58c2.34,3.43,3.18,6.89,2.5,10.3c-0.56,2.8-2.07,5.01-3.46,6.54c3.63,2.01,7.15,6.17,7.15,12.25
						c0,9.16-6.21,12.95-9.5,13.67C388.75,156.7,388.6,156.72,388.45,156.72z"/>
				</g>
				<g>
					<path class="st0" d="M357.43,122.86c-3.16,0-6.32-1.35-9.03-3.9c-4.39-4.12-6.77-10.52-6.37-17.12c0.35-5.6,3.49-10,8.62-12.09
						c4.73-1.93,10.01-1.32,13.13,1.51c2,1.81,2.87,3.87,3.21,5.63c2.5-1.08,6.19-1.76,10.27,0.44c4.17,2.25,6.8,8.2,6.11,13.86
						c-0.14,1.12-1.15,1.92-2.27,1.78c-1.12-0.14-1.92-1.15-1.78-2.27c0.54-4.42-1.65-8.51-3.99-9.77c-4.83-2.6-8.9,1.02-8.94,1.06
						c-0.66,0.6-1.64,0.7-2.42,0.24c-0.77-0.46-1.15-1.36-0.94-2.24c0.02-0.11,0.68-3.28-1.99-5.7c-1.92-1.74-5.64-2.06-8.85-0.75
						c-1.71,0.7-5.74,2.93-6.09,8.56c-0.33,5.32,1.62,10.64,5.08,13.89c2.2,2.07,4.73,3.04,7.1,2.74c3.06-0.39,3.91-2.64,4.14-3.95
						c0.4-2.27-0.5-4.67-2.05-5.46c-1.14-0.58-2.09-0.75-2.83-0.49c-0.96,0.33-1.43,1.34-1.43,1.35c-0.44,1.04-1.63,1.52-2.67,1.08
						c-1.04-0.44-1.52-1.65-1.08-2.69c0.11-0.27,1.17-2.62,3.76-3.56c1.85-0.68,3.91-0.45,6.12,0.68c3.15,1.61,4.93,5.74,4.21,9.8
						c-0.7,4-3.63,6.79-7.65,7.3C358.35,122.83,357.89,122.86,357.43,122.86z"/>
				</g>
				<g>
					<path class="st0" d="M345.36,166.74c-0.9,0-1.72-0.6-1.97-1.51c-0.23-0.85-2.19-8.48,0.52-13.11c0.97-1.65,2.45-2.76,4.28-3.22
						c4.41-1.1,7.02,0.44,8.43,1.93c0.67,0.7,1.18,1.52,1.56,2.38c1.73-1.4,4.07-2.34,7.04-1.86c3.62,0.58,6.27,3.21,6.92,6.86
						c0.58,3.23-0.69,6.33-3.16,7.71c-0.98,0.55-2.23,0.2-2.78-0.78c-0.55-0.98-0.2-2.23,0.78-2.78c0.94-0.53,1.41-1.94,1.14-3.43
						c-0.13-0.72-0.76-3.1-3.54-3.54c-4.07-0.65-5.75,3.43-5.93,3.9c-0.39,1.03-1.53,1.57-2.57,1.22c-1.04-0.36-1.62-1.47-1.3-2.52
						c0.26-0.86,0.11-3.04-1.12-4.34c-0.97-1.02-2.47-1.28-4.48-0.78c-0.78,0.19-1.33,0.62-1.75,1.33c-1.57,2.67-0.57,8.23-0.1,9.97
						c0.3,1.09-0.35,2.21-1.44,2.51C345.72,166.72,345.54,166.74,345.36,166.74z"/>
				</g>
				<g>
					<path class="st0" d="M344.03,147.88c-1.12,0-2.04-0.91-2.04-2.03c-0.03-7.3-0.06-12.57,2.59-15.23c1.1-1.1,2.54-1.66,4.31-1.66
						c5.06,0,6.9,4.05,6.9,6.78c0,1.13-0.91,2.04-2.04,2.04c-1.12,0-2.03-0.9-2.04-2.02c-0.02-0.82-0.33-2.71-2.81-2.71
						c-0.85,0-1.2,0.24-1.41,0.45c-1.45,1.45-1.42,6.73-1.4,12.33C346.08,146.96,345.17,147.87,344.03,147.88
						C344.03,147.88,344.03,147.88,344.03,147.88z"/>
				</g>
			</g>
			<g>
				<path class="st0" d="M325.35,191.67c-0.81,0-1.57-0.48-1.89-1.27c-0.04-0.1-2.91-6.87-9.65-9.79c-1.04-0.45-1.51-1.65-1.06-2.69
					c0.45-1.04,1.65-1.51,2.69-1.06c8.32,3.6,11.67,11.65,11.81,11.99c0.43,1.05-0.08,2.24-1.12,2.66
					C325.87,191.62,325.61,191.67,325.35,191.67z"/>
			</g>
			<g>
				<path class="st0" d="M357.82,191.67c0.81,0,1.57-0.48,1.89-1.27c0.04-0.1,2.91-6.87,9.65-9.79c1.04-0.45,1.51-1.65,1.06-2.69
					c-0.45-1.04-1.65-1.51-2.69-1.06c-8.32,3.6-11.67,11.65-11.81,11.99c-0.43,1.05,0.08,2.24,1.12,2.66
					C357.31,191.62,357.57,191.67,357.82,191.67z"/>
			</g>
			<g>
				<path class="st0" d="M343.59,194.22C343.59,194.22,343.59,194.22,343.59,194.22c-0.71,0-1.28-0.57-1.28-1.28
					c0-0.26,0.04-6.38,3.41-11.15c0.41-0.58,1.2-0.71,1.78-0.31c0.58,0.41,0.71,1.2,0.31,1.78c-2.9,4.1-2.94,9.62-2.94,9.68
					C344.87,193.65,344.3,194.22,343.59,194.22z"/>
			</g>
			<g>
				<path class="st0" d="M347.44,183.8c-2.14,0-3.88-1.74-3.88-3.88c0-2.14,1.74-3.88,3.88-3.88c2.14,0,3.88,1.74,3.88,3.88
					C351.33,182.06,349.59,183.8,347.44,183.8z M347.44,178.6c-0.73,0-1.33,0.6-1.33,1.33c0,0.73,0.6,1.33,1.33,1.33
					c0.73,0,1.33-0.6,1.33-1.33C348.77,179.19,348.18,178.6,347.44,178.6z"/>
			</g>
			<g>
				<path class="st0" d="M339.15,194.22c-0.7,0-1.28-0.57-1.28-1.28l0,0c0-0.06-0.05-5.58-2.94-9.68c-0.41-0.58-0.27-1.37,0.31-1.78
					c0.58-0.41,1.37-0.27,1.78,0.31c3.37,4.77,3.41,10.89,3.41,11.15C340.42,193.65,339.85,194.22,339.15,194.22z"/>
			</g>
			<g>
				<path class="st0" d="M335.29,183.8c-2.14,0-3.88-1.74-3.88-3.88c0-2.14,1.74-3.88,3.88-3.88c2.14,0,3.88,1.74,3.88,3.88
					C339.18,182.06,337.43,183.8,335.29,183.8z M335.29,178.6c-0.73,0-1.33,0.6-1.33,1.33c0,0.73,0.6,1.33,1.33,1.33
					c0.73,0,1.33-0.6,1.33-1.33C336.62,179.19,336.03,178.6,335.29,178.6z"/>
			</g>
		</g>
	</g>
</g>
<g id="Vector_Smart_Object_xA0_Image_00000149352669724380513210000010085028755152509085_">
</g>
<g id="Rectangle_2_00000114053172076555891440000014532510019962406320_">
	<g>
		<path d="M363.72,198.35h-44.79c-2.35,0-4.25,1.9-4.25,4.25s1.9,4.25,4.25,4.25h44.79c2.35,0,4.25-1.9,4.25-4.25
			S366.06,198.35,363.72,198.35z"/>
	</g>
</g>
<g id="Rectangle_2_copy_00000067958348074876635200000007683103887070866818_">
	<g>
		<path d="M354.89,209.03h-27.14c-2.35,0-4.25,1.9-4.25,4.25s1.9,4.25,4.25,4.25h27.14c2.35,0,4.25-1.9,4.25-4.25
			S357.24,209.03,354.89,209.03z"/>
	</g>
</g>
<g id="Rectangle_2_copy_2_00000131353241113876951570000002078800229144560827_">
	<g>
		<path d="M347.21,220.04h-11.77c-2.35,0-4.25,1.9-4.25,4.25s1.9,4.25,4.25,4.25h11.77c2.35,0,4.25-1.9,4.25-4.25
			S349.55,220.04,347.21,220.04z"/>
	</g>
</g>
<g id="Rectangle_3_00000116942314449309987770000017882467287600884379_">
	<g>
		<path class="st1" d="M341.32,52.21c-1.53,0-2.78,1.24-2.78,2.78v18.64c0,1.53,1.24,2.78,2.78,2.78c1.53,0,2.78-1.24,2.78-2.78
			V54.99C344.1,53.45,342.86,52.21,341.32,52.21z"/>
	</g>
</g>
<g id="Rectangle_3_copy_00000150790822286020587150000017865954602869247888_">
	<g>
		<path class="st1" d="M308.83,81.78l-9.32-16.14c-0.77-1.33-2.47-1.78-3.8-1.02c-1.33,0.77-1.78,2.47-1.02,3.8l9.32,16.14
			c0.77,1.33,2.47,1.78,3.8,1.02C309.14,84.8,309.59,83.1,308.83,81.78z"/>
	</g>
</g>
<g id="Rectangle_3_copy_2_00000013887715946946558890000017507840583261014961_">
	<g>
		<path class="st1" d="M276.76,106.79l-16.14-9.32c-1.33-0.77-3.03-0.31-3.8,1.02c-0.77,1.33-0.31,3.03,1.02,3.8l16.14,9.32
			c1.33,0.77,3.03,0.31,3.8-1.02C278.55,109.26,278.09,107.56,276.76,106.79z"/>
	</g>
</g>
<g id="Rectangle_3_copy_3_00000111166001145829156490000002665626492895175558_">
	<g>
		<path class="st1" d="M273.43,138.35c-0.4-1.48-1.92-2.36-3.4-1.97l-18,4.82c-1.48,0.4-2.36,1.92-1.97,3.4
			c0.4,1.48,1.92,2.36,3.4,1.97l18-4.82C272.95,141.35,273.83,139.83,273.43,138.35z"/>
	</g>
</g>
<g id="Rectangle_3_copy_5_00000178910544803441102770000016641033381364603068_">
	<g>
		<path class="st1" d="M386.93,64.62c-1.33-0.77-3.03-0.31-3.8,1.02l-9.32,16.14c-0.77,1.33-0.31,3.03,1.02,3.8
			c1.33,0.77,3.03,0.31,3.8-1.02l9.32-16.14C388.71,67.09,388.26,65.39,386.93,64.62z"/>
	</g>
</g>
<g id="Rectangle_3_copy_6_00000007414272530720655230000001800941323376835502_">
	<g>
		<path class="st1" d="M421.37,98.49c-0.77-1.33-2.47-1.78-3.8-1.02l-16.14,9.32c-1.33,0.77-1.78,2.47-1.02,3.8
			c0.77,1.33,2.47,1.78,3.8,1.02l16.14-9.32C421.68,101.52,422.13,99.82,421.37,98.49z"/>
	</g>
</g>
<g id="Rectangle_3_copy_7_00000129927295469731333560000005348027974799223738_">
	<g>
		<path class="st1" d="M426.17,141.21l-18-4.82c-1.48-0.4-3.01,0.48-3.4,1.97c-0.4,1.48,0.48,3.01,1.97,3.4l18,4.82
			c1.48,0.4,3.01-0.48,3.4-1.97C428.53,143.13,427.65,141.6,426.17,141.21z"/>
	</g>
</g>
</svg>
