<?xml version="1.0" encoding="utf-8"?>
<!-- Generator: Adobe Illustrator 27.0.0, SVG Export Plug-In . SVG Version: 6.00 Build 0)  -->
<svg version="1.1" id="Layer_1" xmlns="http://www.w3.org/2000/svg" xmlns:xlink="http://www.w3.org/1999/xlink" x="0px" y="0px"
	 viewBox="0 0 1000 1000" style="enable-background:new 0 0 1000 1000;" xml:space="preserve">
<style type="text/css">
	.st0{fill:#2563EB;}
	.st1{fill:#0E1829;}
</style>
<g>
	<g>
		<g>
			<g>
				<path class="st0" d="M419.95,682.55c-17.68,0-33.87-5.32-46.74-15.39c-14.26,3.63-50.21,9.1-80.55-16.91
					c-25.33-21.71-35.66-51.05-31.59-89.71c1.89-17.92,12-35.44,27.75-48.07c11.63-9.32,25.16-14.98,38.49-16.29
					c0.01-11.86,2.13-29.87,13.13-42.87c8.62-10.19,20.75-15.46,36.05-15.67c18.16-0.27,48.64,6.17,49.58,51.99
					c0.12,5.87-4.54,10.73-10.42,10.85c-5.79,0.12-10.74-4.54-10.85-10.42c-0.45-22.1-8.88-31.46-28.02-31.15
					c-8.97,0.12-15.53,2.77-20.06,8.1c-9.26,10.89-8.62,31.28-7.59,38.22c0.49,3.27-0.58,6.6-2.88,8.97
					c-2.3,2.38-5.56,3.56-8.86,3.19c-11.51-1.32-24.36,2.94-35.26,11.68c-11.35,9.1-18.61,21.39-19.9,33.7
					c-3.37,32.05,4.11,54.05,24.27,71.33c28.35,24.3,64.06,11.78,65.57,11.23c3.77-1.36,8.02-0.51,10.94,2.24
					c10.93,10.27,26.4,15.01,43.56,13.38c18.86-1.8,36.91-11.05,45.97-23.58c22.42-31,19.62-72.05,19.59-72.46
					c-0.02-0.27-0.03-0.53-0.03-0.8V307.77c0-5.88,4.76-10.64,10.64-10.64s10.64,4.76,10.64,10.64v255.99
					c0.33,5.26,2.28,50.32-23.6,86.08c-12.68,17.52-36.12,29.89-61.18,32.29C425.68,682.41,422.79,682.55,419.95,682.55z"/>
			</g>
			<g>
				<path class="st0" d="M271.65,572.29c-0.76,0-1.53-0.08-2.3-0.25c-17.1-3.76-49.44-23.48-49.44-71.19
					c0-31.65,18.32-53.29,37.24-63.76c-7.25-7.96-15.09-19.47-18-34.05c-3.55-17.73,0.83-35.77,13.02-53.62
					c14.3-20.95,48.11-31.2,78.65-23.85c26.52,6.39,43.53,24.26,46.68,49.05c0.74,5.83-3.39,11.15-9.21,11.89
					c-5.82,0.73-11.15-3.38-11.89-9.21c-2.7-21.26-20.3-28.57-30.55-31.04c-21.68-5.22-46.83,1.58-56.1,15.16
					c-8.8,12.89-12.08,25.44-9.76,37.29c3.98,20.31,23.04,33.14,23.24,33.26c3.65,2.41,5.46,6.82,4.55,11.1
					c-0.91,4.28-4.33,7.57-8.64,8.29c-15.75,2.62-37.94,19.71-37.94,49.49c0,42.71,32.4,50.33,32.73,50.41
					c5.74,1.26,9.37,6.94,8.11,12.68C280.94,568.91,276.54,572.29,271.65,572.29z"/>
			</g>
			<g>
				<path class="st0" d="M433.18,396.01c-2.39,0-4.79-0.15-7.18-0.45c-20.92-2.64-36.18-17.21-39.83-38.01
					c-3.71-21.17,5.52-42.63,21.94-51.03c11.49-5.88,22.2-7.07,31.86-3.55c13.5,4.92,18.98,17.17,19.56,18.55
					c2.28,5.42-0.26,11.65-5.68,13.93c-5.37,2.27-11.56-0.22-13.88-5.55c-0.14-0.29-2.57-5.3-7.44-6.99
					c-3.84-1.33-8.79-0.48-14.73,2.56c-8.05,4.12-12.74,16.6-10.67,28.41c1.2,6.82,5.58,18.56,21.53,20.58
					c12.38,1.56,25.51-3.5,36.98-14.25c18.04-16.92,28.18-44.63,26.47-72.31c-1.81-29.32-22.76-40.93-31.69-44.56
					c-16.69-6.79-36.07-5.14-46.08,3.93c-14.21,12.88-10.4,29.51-10.36,29.68c1.09,4.54-0.9,9.26-4.92,11.65
					c-4.02,2.38-9.12,1.87-12.58-1.27c-0.83-0.74-21.74-18.85-46.55-5.49c-12.17,6.55-23.57,27.86-20.78,50.85
					c0.71,5.83-3.45,11.14-9.28,11.84c-5.83,0.71-11.13-3.45-11.84-9.28c-3.58-29.44,10.1-60.46,31.81-72.15
					c21.28-11.46,40.45-7.9,53.49-2.29c1.8-9.14,6.33-19.88,16.72-29.29c16.26-14.73,43.74-17.9,68.38-7.87
					c26.74,10.88,43.1,33.82,44.9,62.96c2.12,34.36-10.27,67.68-33.15,89.15C466.09,388.96,449.63,396.01,433.18,396.01z"/>
			</g>
			<g>
				<path class="st0" d="M496,624.48c-0.92,0-1.86-0.12-2.8-0.37c-5.67-1.54-9.01-7.38-7.48-13.05l0,0
					c2.62-9.73,7.64-38.02-0.53-51.92c-2.17-3.69-5.05-5.87-9.09-6.88c-10.44-2.61-18.29-1.25-23.33,4.05
					c-6.4,6.73-7.18,18.11-5.81,22.58c1.68,5.51-1.34,11.36-6.8,13.19c-5.46,1.82-11.39-1.03-13.37-6.44
					c-0.9-2.38-9.6-23.66-30.85-20.26c-14.46,2.31-17.76,14.7-18.43,18.44c-1.39,7.78,1.05,15.13,5.94,17.87
					c5.12,2.88,6.94,9.36,4.06,14.49c-2.88,5.12-9.36,6.95-14.49,4.06c-12.85-7.22-19.46-23.36-16.46-40.16
					c3.39-19.01,17.19-32.7,36.02-35.71c15.48-2.47,27.67,2.43,36.66,9.69c1.95-4.49,4.63-8.75,8.11-12.41
					c7.36-7.74,20.96-15.77,43.91-10.03c9.55,2.39,17.26,8.19,22.29,16.78c14.11,24.07,3.91,63.79,2.7,68.24
					C504.97,621.37,500.68,624.48,496,624.48z"/>
			</g>
			<g>
				<path class="st0" d="M502.95,526.28c-0.02,0-0.03,0-0.05,0c-5.88-0.03-10.62-4.81-10.59-10.69c0.13-29.12,0.25-56.62-7.28-64.18
					c-1.09-1.1-2.92-2.36-7.35-2.36c-13.59,0-14.64,10.72-14.64,14.01c0,5.88-4.76,10.64-10.64,10.64c0,0,0,0,0,0
					c-5.88,0-10.64-4.76-10.64-10.64c0-14.18,9.57-35.29,35.92-35.29c9.18,0,16.73,2.9,22.43,8.63
					c13.77,13.83,13.64,41.28,13.48,79.29C513.56,521.55,508.8,526.28,502.95,526.28z"/>
			</g>
		</g>
		<g>
			<g>
				<path class="st0" d="M613.62,682.55c-2.85,0-5.73-0.14-8.64-0.42c-25.06-2.39-48.51-14.76-61.18-32.29
					c-25.87-35.76-23.92-80.82-23.6-86.08V307.77c0-5.88,4.76-10.64,10.64-10.64s10.64,4.76,10.64,10.64v256.35
					c0,0.27-0.01,0.53-0.03,0.8c-0.03,0.39-2.69,41.65,19.59,72.46c9.06,12.52,27.1,21.78,45.97,23.58
					c17.15,1.63,32.63-3.12,43.56-13.38c2.94-2.76,7.18-3.63,10.98-2.22c1.47,0.53,37.18,13.06,65.53-11.25
					c20.16-17.28,27.65-39.28,24.27-71.33c-1.3-12.31-8.55-24.6-19.91-33.7c-10.9-8.74-23.77-13-35.26-11.68
					c-3.3,0.37-6.58-0.8-8.88-3.19c-2.3-2.39-3.35-5.71-2.85-8.99c1.03-6.91,1.67-27.3-7.59-38.2c-4.53-5.33-11.09-7.98-20.06-8.1
					c-0.26,0-0.53-0.01-0.79-0.01c-18.63,0-26.78,9.36-27.23,31.15c-0.12,5.88-4.92,10.54-10.85,10.42
					c-5.88-0.12-10.54-4.98-10.42-10.85c0.94-45.81,31.34-52.26,49.58-51.99c15.29,0.21,27.42,5.48,36.04,15.67
					c11,13,13.12,31.01,13.13,42.87c13.33,1.31,26.86,6.97,38.49,16.29c15.75,12.63,25.87,30.15,27.76,48.07
					c4.07,38.66-6.26,68-31.59,89.71c-30.35,26.01-66.29,20.54-80.55,16.91C647.49,677.22,631.29,682.55,613.62,682.55z"/>
			</g>
			<g>
				<path class="st0" d="M761.91,572.29c-4.89,0-9.29-3.39-10.38-8.36c-1.26-5.72,2.34-11.37,8.04-12.66
					c1.54-0.37,32.8-8.42,32.8-50.42c0-29.77-22.19-46.86-37.94-49.49c-4.33-0.72-7.77-4.02-8.66-8.32
					c-0.9-4.29,0.93-8.7,4.61-11.09c0.16-0.11,19.22-12.93,23.2-33.24c2.32-11.86-0.96-24.4-9.75-37.29
					c-9.26-13.58-34.43-20.37-56.1-15.16c-10.25,2.47-27.85,9.78-30.55,31.04c-0.74,5.83-6.07,9.96-11.89,9.21
					c-5.83-0.74-9.95-6.06-9.21-11.89c3.15-24.78,20.16-42.66,46.67-49.05c30.54-7.36,64.36,2.9,78.65,23.85
					c12.18,17.85,16.56,35.89,13.01,53.62c-2.92,14.58-10.76,26.09-18,34.05c18.92,10.47,37.24,32.12,37.24,63.76
					c0.01,47.71-32.33,67.43-49.44,71.19C763.44,572.21,762.67,572.29,761.91,572.29z"/>
			</g>
			<g>
				<path class="st0" d="M600.39,396.01c-16.45,0-32.91-7.05-47.03-20.29c-22.88-21.46-35.27-54.79-33.15-89.14
					c1.8-29.13,18.17-52.08,44.9-62.96c24.64-10.02,52.12-6.86,68.38,7.87c10.39,9.42,14.92,20.15,16.72,29.29
					c13.04-5.61,32.2-9.17,53.49,2.29c21.71,11.69,35.39,42.71,31.81,72.15c-0.71,5.83-6,9.98-11.84,9.28
					c-5.83-0.71-9.99-6.01-9.28-11.84c2.79-22.99-8.61-44.3-20.78-50.85c-25.13-13.53-46.34,5.3-46.55,5.49
					c-3.46,3.14-8.56,3.66-12.58,1.27c-4.02-2.38-6.01-7.11-4.92-11.65c0.13-0.6,3.57-17.06-10.36-29.68
					c-10-9.06-29.38-10.72-46.08-3.93c-8.92,3.63-29.87,15.24-31.69,44.56c-1.71,27.68,8.43,55.39,26.47,72.31
					c11.46,10.75,24.6,15.81,36.98,14.25c15.95-2.02,20.34-13.76,21.53-20.58c2.07-11.81-2.62-24.29-10.67-28.41
					c-5.93-3.03-10.89-3.89-14.73-2.56c-4.99,1.74-7.43,6.95-7.45,7.01c-2.28,5.42-8.49,7.89-13.9,5.61
					c-5.42-2.28-7.93-8.59-5.65-14c0.58-1.38,6.07-13.63,19.56-18.55c9.65-3.52,20.37-2.32,31.86,3.55
					c16.42,8.4,25.65,29.86,21.94,51.03c-3.65,20.8-18.91,35.37-39.83,38.01C605.18,395.86,602.78,396.01,600.39,396.01z"/>
			</g>
			<g>
				<path class="st0" d="M537.57,624.48c-4.68,0-8.97-3.11-10.26-7.85c-1.21-4.45-11.41-44.17,2.7-68.24
					c5.04-8.59,12.75-14.39,22.29-16.78c22.95-5.74,36.55,2.29,43.91,10.04c3.49,3.66,6.16,7.92,8.11,12.41
					c8.99-7.27,21.17-12.17,36.66-9.69c18.82,3.01,32.62,16.69,36.02,35.71c3,16.81-3.62,32.95-16.46,40.16
					c-5.12,2.88-11.61,1.06-14.49-4.06c-2.88-5.12-1.06-11.61,4.06-14.49c4.89-2.74,7.33-10.09,5.94-17.87
					c-0.67-3.74-3.97-16.12-18.43-18.44c-21.21-3.38-29.94,17.88-30.87,20.32c-2.03,5.37-7.97,8.18-13.39,6.33
					c-5.43-1.85-8.43-7.65-6.75-13.14c1.36-4.48,0.58-15.85-5.82-22.58c-5.04-5.3-12.88-6.67-23.33-4.06
					c-4.04,1.01-6.93,3.2-9.09,6.9c-8.16,13.92-2.98,42.86-0.52,51.9c1.54,5.67-1.81,11.52-7.48,13.06
					C539.43,624.36,538.49,624.48,537.57,624.48z"/>
			</g>
			<g>
				<path class="st0" d="M530.62,526.28c-5.85,0-10.61-4.73-10.64-10.59c-0.17-38-0.29-65.46,13.48-79.29
					c5.7-5.73,13.25-8.63,22.43-8.63c26.35,0,35.92,21.1,35.92,35.29c0,5.88-4.76,10.64-10.64,10.64c-5.84,0-10.59-4.71-10.64-10.54
					c-0.1-4.26-1.73-14.11-14.64-14.11c-4.43,0-6.26,1.26-7.36,2.37c-7.53,7.56-7.41,35.06-7.28,64.18
					c0.03,5.88-4.72,10.66-10.59,10.69C530.65,526.28,530.64,526.28,530.62,526.28z"/>
			</g>
		</g>
		<g>
			<path class="st0" d="M433.39,754.29c-4.19,0-8.17-2.49-9.85-6.61c-0.21-0.5-15.16-35.76-50.25-50.96
				c-5.39-2.34-7.87-8.6-5.53-13.99c2.33-5.39,8.6-7.86,13.99-5.53c43.34,18.77,60.78,60.68,61.5,62.45
				c2.21,5.44-0.41,11.65-5.85,13.86C436.08,754.03,434.73,754.29,433.39,754.29z"/>
		</g>
		<g>
			<path class="st0" d="M602.45,754.29c4.19,0,8.17-2.49,9.85-6.61c0.21-0.5,15.16-35.76,50.25-50.96c5.39-2.34,7.87-8.6,5.53-13.99
				c-2.33-5.39-8.6-7.86-13.99-5.53c-43.34,18.77-60.78,60.68-61.5,62.45c-2.21,5.44,0.41,11.65,5.85,13.86
				C599.76,754.03,601.11,754.29,602.45,754.29z"/>
		</g>
		<g>
			<path class="st0" d="M528.36,767.54C528.35,767.54,528.35,767.54,528.36,767.54c-3.68-0.01-6.65-2.97-6.65-6.64
				c0-1.35,0.2-33.21,17.77-58.06c2.12-3,6.27-3.71,9.27-1.59c3,2.12,3.71,6.27,1.59,9.27C535.26,731.84,535,760.62,535,760.9
				C534.99,764.57,532.02,767.54,528.36,767.54z"/>
		</g>
		<g>
			<path class="st0" d="M548.41,713.32c-11.14,0-20.21-9.06-20.21-20.21c0-11.14,9.06-20.21,20.21-20.21
				c11.14,0,20.21,9.06,20.21,20.21C568.62,704.26,559.56,713.32,548.41,713.32z M548.41,686.21c-3.81,0-6.91,3.1-6.91,6.91
				c0,3.81,3.1,6.91,6.91,6.91c3.81,0,6.91-3.1,6.91-6.91C555.32,689.3,552.22,686.21,548.41,686.21z"/>
		</g>
		<g>
			<path class="st0" d="M505.21,767.55c-3.67,0-6.64-2.97-6.65-6.64l0,0c0-0.29-0.25-29.06-15.33-50.39c-2.12-3-1.41-7.15,1.59-9.27
				c3-2.12,7.15-1.41,9.27,1.59c17.57,24.86,17.77,56.72,17.77,58.06C511.86,764.57,508.88,767.55,505.21,767.55z"/>
		</g>
		<g>
			<path class="st0" d="M485.15,713.32c-11.14,0-20.21-9.06-20.21-20.21c0-11.14,9.06-20.21,20.21-20.21
				c11.14,0,20.21,9.06,20.21,20.21C505.36,704.26,496.29,713.32,485.15,713.32z M485.15,686.21c-3.81,0-6.91,3.1-6.91,6.91
				c0,3.81,3.1,6.91,6.91,6.91c3.81,0,6.91-3.1,6.91-6.91C492.06,689.3,488.96,686.21,485.15,686.21z"/>
		</g>
	</g>
</g>
<g id="Rectangle_2_00000033366256674171144500000000815664594106994331_">
	<g>
		<path d="M633.13,789.07h-233.2c-12.22,0-22.13,9.91-22.13,22.13s9.91,22.13,22.13,22.13h233.2c12.22,0,22.13-9.91,22.13-22.13
			S645.35,789.07,633.13,789.07z"/>
	</g>
</g>
<g id="Rectangle_2_copy_00000008135985644891234170000016359694257366840721_">
	<g>
		<path d="M587.17,844.65H445.88c-12.22,0-22.13,9.91-22.13,22.13c0,12.22,9.91,22.13,22.13,22.13h141.28
			c12.22,0,22.13-9.91,22.13-22.13C609.3,854.56,599.39,844.65,587.17,844.65z"/>
	</g>
</g>
<g id="Rectangle_2_copy_2_00000022544781695675238330000014984095200557678986_">
	<g>
		<path d="M547.17,901.97h-61.28c-12.22,0-22.13,9.91-22.13,22.13c0,12.22,9.91,22.13,22.13,22.13h61.28
			c12.22,0,22.13-9.91,22.13-22.13C569.29,911.87,559.39,901.97,547.17,901.97z"/>
	</g>
</g>
<g id="Rectangle_3_00000138568351776745736990000017073487479183529146_">
	<g>
		<path class="st1" d="M516.53,28.18c-7.99,0-14.47,6.48-14.47,14.47v97.03c0,7.99,6.48,14.47,14.47,14.47
			c7.99,0,14.47-6.48,14.47-14.47V42.65C530.99,34.66,524.52,28.18,516.53,28.18z"/>
	</g>
</g>
<g id="Rectangle_3_copy_00000084529805138951416270000018303502498543389344_">
	<g>
		<path class="st1" d="M347.34,182.11l-48.51-84.03c-4-6.92-12.84-9.29-19.76-5.3c-6.92,4-9.29,12.84-5.3,19.76l48.51,84.03
			c4,6.92,12.84,9.29,19.76,5.3C348.97,197.88,351.34,189.03,347.34,182.11z"/>
	</g>
</g>
<g id="Rectangle_3_copy_2_00000161617068821451012810000009711030104794335393_">
	<g>
		<path class="st1" d="M180.41,312.35l-84.03-48.51c-6.92-4-15.77-1.62-19.76,5.3c-4,6.92-1.62,15.77,5.3,19.76l84.03,48.51
			c6.92,4,15.77,1.62,19.76-5.3C189.7,325.19,187.33,316.35,180.41,312.35z"/>
	</g>
</g>
<g id="Rectangle_3_copy_3_00000097476636438781476210000000989236356686186163_">
	<g>
		<path class="st1" d="M163.06,476.66c-2.07-7.72-10-12.3-17.72-10.23l-93.72,25.11c-7.72,2.07-12.3,10-10.23,17.72
			c2.07,7.72,10,12.3,17.72,10.23l93.72-25.11C160.55,492.31,165.13,484.38,163.06,476.66z"/>
	</g>
</g>
<g id="Rectangle_3_copy_5_00000008832092464109363440000018171028711135040939_">
	<g>
		<path class="st1" d="M753.98,92.79c-6.92-4-15.77-1.62-19.76,5.3l-48.51,84.03c-4,6.92-1.62,15.77,5.3,19.76
			c6.92,4,15.77,1.62,19.76-5.3l48.51-84.03C763.28,105.63,760.9,96.78,753.98,92.79z"/>
	</g>
</g>
<g id="Rectangle_3_copy_6_00000101065513265251606100000007981816511419321243_">
	<g>
		<path class="st1" d="M933.28,269.13c-4-6.92-12.84-9.29-19.76-5.3l-84.03,48.51c-6.92,4-9.29,12.84-5.3,19.76
			c4,6.92,12.84,9.29,19.76,5.3l84.03-48.51C934.9,284.9,937.27,276.05,933.28,269.13z"/>
	</g>
</g>
<g id="Rectangle_3_copy_7_00000060731610644464591170000005655915369214505607_">
	<g>
		<path class="st1" d="M958.27,491.54l-93.72-25.11c-7.72-2.07-15.65,2.51-17.72,10.23c-2.07,7.72,2.51,15.65,10.23,17.72
			l93.72,25.11c7.72,2.07,15.65-2.51,17.72-10.23C970.57,501.54,965.99,493.61,958.27,491.54z"/>
	</g>
</g>
</svg>
